<svg xmlns="http://www.w3.org/2000/svg" viewBox="0 0 256 256">
  <rect width="256" height="256" rx="56" fill="#E85D2C"/>
  <path d="M176.5 155.8v19.6a13.1 13.1 0 0 1-14.3 13.1 129.6 129.6 0 0 1-56.5-20.1 127.7 127.7 0 0 1-39.3-39.3 129.6 129.6 0 0 1-20.1-56.8A13.1 13.1 0 0 1 59.4 58.5h19.6a13.1 13.1 0 0 1 13.1 11.3c.8 6.2 2.3 12.3 4.5 18.1a13.1 13.1 0 0 1-2.9 13.8l-8.3 8.3a104.9 104.9 0 0 0 39.3 39.3l8.3-8.3a13.1 13.1 0 0 1 13.8-2.9c5.9 2.2 12 3.7 18.2 4.5a13.1 13.1 0 0 1 11.5 13.2z" fill="#fff"/>
</svg>
